<svg width="481" height="451" viewBox="0 0 481 451" fill="none" xmlns="http://www.w3.org/2000/svg">
<g clip-path="url(#clip0)" filter="url(#filter0_ddi)">
<path d="M408.036 328.989L382.91 214.63C380.313 202.811 371.623 193.855 360.568 190.766V184.538C360.568 176.239 353.876 169.486 345.649 169.486H323.649C315.423 169.486 308.73 176.238 308.73 184.538V191.801C304.074 193.649 299.913 196.586 296.596 200.341H184.404C181.244 196.764 177.316 193.932 172.925 192.074V184.538C172.925 176.239 166.232 169.486 158.006 169.486H136.006C127.78 169.486 121.087 176.238 121.087 184.538V190.587C109.72 193.501 100.738 202.578 98.0901 214.629L82.9036 283.748C82.3162 286.423 83.9886 289.072 86.6397 289.665C86.9983 289.745 87.3556 289.783 87.7083 289.783C89.9635 289.783 91.9958 288.208 92.5039 285.895L107.69 216.777C109.924 206.612 118.692 199.512 129.012 199.512H160.739C170.507 199.512 179.16 206.144 181.778 215.639L184.179 224.343C185.391 228.738 189.395 231.807 193.915 231.807H256.645C259.36 231.807 261.561 229.586 261.561 226.846C261.561 224.107 259.36 221.886 256.645 221.886H193.915C193.794 221.886 193.685 221.803 193.653 221.684L191.252 212.98C190.997 212.054 190.699 211.148 190.366 210.262H290.632C290.3 211.149 290.002 212.054 289.747 212.98L287.346 221.683C287.313 221.802 287.205 221.885 287.083 221.885H277.598C274.882 221.885 272.681 224.106 272.681 226.846C272.681 229.585 274.882 231.806 277.598 231.806H287.083C291.604 231.806 295.608 228.737 296.82 224.343L299.221 215.639C301.839 206.143 310.491 199.511 320.26 199.511H351.987C362.307 199.511 371.075 206.611 373.308 216.776L398.435 331.135C401.098 343.261 396.328 355.732 386.28 362.908C378.83 368.229 369.503 369.902 360.691 367.494C351.879 365.088 344.662 358.898 340.889 350.511L326.881 319.375C330.109 313.674 331.965 307.084 331.965 300.061C331.965 297.321 329.763 295.1 327.048 295.1C324.333 295.1 322.131 297.321 322.131 300.061C322.131 316.132 309.171 329.208 293.242 329.208C277.312 329.208 264.352 316.132 264.352 300.061C264.352 297.321 262.151 295.1 259.435 295.1C256.72 295.1 254.519 297.321 254.519 300.061C254.519 307.534 256.612 314.521 260.234 320.463L259.185 321.188C257.169 322.581 254.812 323.318 252.37 323.318H228.628C226.185 323.318 223.828 322.581 221.813 321.188L220.765 320.464C224.387 314.521 226.481 307.534 226.481 300.061C226.481 297.321 224.279 295.1 221.564 295.1C218.848 295.1 216.647 297.321 216.647 300.061C216.647 316.132 203.687 329.208 187.758 329.208C171.828 329.208 158.868 316.132 158.868 300.061C158.868 297.321 156.667 295.1 153.951 295.1C151.236 295.1 149.035 297.321 149.035 300.061C149.035 307.084 150.89 313.674 154.119 319.375L140.111 350.511C136.338 358.898 129.12 365.088 120.308 367.494C111.497 369.901 102.17 368.229 94.7191 362.908C84.671 355.732 79.9004 343.261 82.564 331.135L87.924 306.738C88.5114 304.063 86.839 301.414 84.1879 300.822C81.5373 300.229 78.9118 301.916 78.3237 304.591L72.9637 328.989C69.4406 345.024 75.7499 361.517 89.0378 371.006C95.9372 375.934 104.053 378.495 112.3 378.495C115.83 378.495 119.385 378.025 122.878 377.072C134.53 373.889 144.075 365.703 149.065 354.612L160.944 328.208C167.909 334.963 177.357 339.129 187.758 339.129C198.158 339.129 207.607 334.964 214.57 328.209L216.255 329.374C219.914 331.903 224.193 333.24 228.628 333.24H252.37C256.805 333.24 261.084 331.903 264.743 329.374L266.429 328.208C273.393 334.963 282.842 339.129 293.242 339.129C303.643 339.129 313.091 334.963 320.056 328.208L331.935 354.612C336.924 365.703 346.469 373.889 358.122 377.072C361.616 378.025 365.169 378.495 368.7 378.495C376.947 378.495 385.063 375.933 391.962 371.006C405.25 361.517 411.559 345.024 408.036 328.989ZM130.921 189.591V184.538C130.921 181.709 133.202 179.408 136.006 179.408H158.006C160.81 179.408 163.091 181.709 163.091 184.538V189.591H160.739H130.921ZM320.261 189.591H318.563V184.538C318.563 181.709 320.845 179.408 323.649 179.408H345.649C348.453 179.408 350.734 181.709 350.734 184.538V189.591H320.261Z" fill="white"/>
<path d="M168.702 300.061C168.702 310.662 177.251 319.287 187.758 319.287C198.265 319.287 206.813 310.662 206.813 300.061C206.813 289.461 198.265 280.836 187.758 280.836C177.251 280.836 168.702 289.461 168.702 300.061ZM187.758 290.757C192.842 290.757 196.98 294.932 196.98 300.061C196.98 305.191 192.842 309.366 187.758 309.366C182.673 309.366 178.536 305.191 178.536 300.061C178.536 294.932 182.672 290.757 187.758 290.757Z" fill="white"/>
<path d="M274.187 300.061C274.187 310.662 282.735 319.287 293.242 319.287C303.749 319.287 312.298 310.662 312.298 300.061C312.298 289.461 303.749 280.836 293.242 280.836C282.735 280.836 274.187 289.461 274.187 300.061ZM302.464 300.061C302.464 305.191 298.327 309.366 293.242 309.366C288.158 309.366 284.02 305.191 284.02 300.061C284.02 294.932 288.158 290.757 293.242 290.757C298.327 290.757 302.464 294.932 302.464 300.061Z" fill="white"/>
<path d="M246.502 292.622C249.218 292.622 251.419 290.401 251.419 287.661C251.419 284.922 249.218 282.701 246.502 282.701H235.819C233.104 282.701 230.903 284.922 230.903 287.661C230.903 290.401 233.104 292.622 235.819 292.622H246.502Z" fill="white"/>
<path d="M221.136 261.186C223.851 261.186 226.053 258.965 226.053 256.225C226.053 253.485 223.851 251.264 221.136 251.264H215.188C212.472 251.264 210.271 253.485 210.271 256.225C210.271 258.965 212.472 261.186 215.188 261.186H221.136Z" fill="white"/>
<path d="M260.52 261.186H266.468C269.183 261.186 271.385 258.965 271.385 256.225C271.385 253.485 269.183 251.264 266.468 251.264H260.52C257.804 251.264 255.603 253.485 255.603 256.225C255.603 258.965 257.804 261.186 260.52 261.186Z" fill="white"/>
<path d="M181.278 138.46L234.957 176.577C236.615 177.754 238.557 178.343 240.499 178.343C242.441 178.343 244.384 177.754 246.041 176.577L265.325 162.885C267.545 161.308 268.078 158.213 266.515 155.973C264.952 153.733 261.885 153.195 259.664 154.772L240.499 168.381L187.025 130.41V98.2021L211.805 81.9723L234.049 102.22C237.727 105.566 243.273 105.566 246.949 102.22L269.194 81.9723L293.974 98.2015V130.409L277.057 142.421C274.836 143.998 274.303 147.093 275.866 149.333C277.428 151.573 280.497 152.111 282.717 150.534L299.721 138.46C302.28 136.643 303.808 133.673 303.808 130.516V98.0897C303.808 94.7866 302.169 91.7401 299.422 89.941L274.417 73.5644C270.765 71.1714 265.956 71.5563 262.724 74.499L240.5 94.7277L218.276 74.499C215.043 71.5557 210.234 71.1714 206.583 73.5637L181.578 89.9404C178.832 91.7394 177.192 94.7852 177.192 98.089V130.516C177.191 133.674 178.719 136.644 181.278 138.46Z" fill="white"/>
<path d="M133.329 106.737C136.044 106.737 138.246 104.516 138.246 101.776V97.2156C138.246 94.476 136.044 92.255 133.329 92.255C130.613 92.255 128.412 94.476 128.412 97.2156V101.776C128.412 104.516 130.613 106.737 133.329 106.737Z" fill="white"/>
<path d="M147.141 112.425H151.661C154.376 112.425 156.578 110.204 156.578 107.464C156.578 104.725 154.376 102.504 151.661 102.504H147.141C144.425 102.504 142.224 104.725 142.224 107.464C142.224 110.204 144.425 112.425 147.141 112.425Z" fill="white"/>
<path d="M132.827 130.92C135.542 130.92 137.743 128.699 137.743 125.96V121.399C137.743 118.66 135.542 116.439 132.827 116.439C130.111 116.439 127.91 118.66 127.91 121.399V125.96C127.91 128.699 130.111 130.92 132.827 130.92Z" fill="white"/>
<path d="M114.495 111.918H119.016C121.731 111.918 123.932 109.697 123.932 106.958C123.932 104.218 121.731 101.997 119.016 101.997H114.495C111.78 101.997 109.578 104.218 109.578 106.958C109.578 109.697 111.78 111.918 114.495 111.918Z" fill="white"/>
<path d="M348.327 106.737C351.042 106.737 353.244 104.516 353.244 101.776V97.2156C353.244 94.476 351.042 92.255 348.327 92.255C345.611 92.255 343.41 94.476 343.41 97.2156V101.776C343.41 104.516 345.611 106.737 348.327 106.737Z" fill="white"/>
<path d="M329.995 112.425H334.516C337.231 112.425 339.433 110.204 339.433 107.464C339.433 104.725 337.231 102.504 334.516 102.504H329.995C327.28 102.504 325.079 104.725 325.079 107.464C325.079 110.204 327.28 112.425 329.995 112.425Z" fill="white"/>
<path d="M348.829 116.439C346.114 116.439 343.912 118.66 343.912 121.399V125.96C343.912 128.699 346.114 130.92 348.829 130.92C351.544 130.92 353.746 128.699 353.746 125.96V121.399C353.746 118.659 351.544 116.439 348.829 116.439Z" fill="white"/>
<path d="M362.64 111.918H367.16C369.876 111.918 372.077 109.697 372.077 106.958C372.077 104.218 369.876 101.997 367.16 101.997H362.64C359.925 101.997 357.723 104.218 357.723 106.958C357.723 109.697 359.925 111.918 362.64 111.918Z" fill="white"/>
<path d="M332.683 213.397C325.216 213.397 319.142 219.526 319.142 227.058C319.142 234.59 325.217 240.719 332.683 240.719C340.148 240.719 346.223 234.59 346.223 227.058C346.223 219.526 340.148 213.397 332.683 213.397ZM332.683 230.798C330.639 230.798 328.976 229.12 328.976 227.058C328.976 224.997 330.639 223.319 332.683 223.319C334.726 223.319 336.389 224.997 336.389 227.058C336.389 229.12 334.726 230.798 332.683 230.798Z" fill="white"/>
<path d="M332.683 261.148C325.216 261.148 319.142 267.276 319.142 274.809C319.142 282.341 325.217 288.469 332.683 288.469C340.148 288.469 346.223 282.341 346.223 274.809C346.223 267.276 340.148 261.148 332.683 261.148ZM332.683 278.548C330.639 278.548 328.976 276.87 328.976 274.809C328.976 272.747 330.639 271.069 332.683 271.069C334.726 271.069 336.389 272.747 336.389 274.809C336.389 276.87 334.726 278.548 332.683 278.548Z" fill="white"/>
<path d="M358.057 264.594C365.523 264.594 371.598 258.466 371.598 250.934C371.598 243.401 365.523 237.273 358.057 237.273C350.591 237.273 344.517 243.401 344.517 250.934C344.517 258.466 350.591 264.594 358.057 264.594ZM358.057 247.193C360.101 247.193 361.764 248.871 361.764 250.933C361.764 252.994 360.101 254.672 358.057 254.672C356.013 254.672 354.35 252.994 354.35 250.933C354.35 248.871 356.013 247.193 358.057 247.193Z" fill="white"/>
<path d="M307.308 237.272C299.842 237.272 293.768 243.401 293.768 250.933C293.768 258.465 299.843 264.594 307.308 264.594C314.774 264.594 320.849 258.465 320.849 250.933C320.849 243.401 314.774 237.272 307.308 237.272ZM307.308 254.673C305.264 254.673 303.602 252.995 303.602 250.933C303.602 248.872 305.265 247.194 307.308 247.194C309.352 247.194 311.015 248.872 311.015 250.933C311.015 252.995 309.352 254.673 307.308 254.673Z" fill="white"/>
<path d="M147.689 218.194H137.442C132.001 218.194 127.573 222.66 127.573 228.15V235.439H120.349C114.908 235.439 110.481 239.905 110.481 245.395V255.733C110.481 261.223 114.908 265.689 120.349 265.689H127.573V272.978C127.573 278.468 132.001 282.934 137.442 282.934H147.689C153.13 282.934 157.557 278.468 157.557 272.978V265.689H164.782C170.223 265.689 174.65 261.223 174.65 255.733V245.395C174.65 239.905 170.223 235.439 164.782 235.439H157.557V228.15C157.557 222.66 153.13 218.194 147.689 218.194ZM164.782 245.36L164.816 245.395L164.782 255.769H154.973C150.976 255.769 147.723 259.05 147.723 263.083L147.689 273.014L137.406 272.979V263.084C137.406 259.051 134.154 255.769 130.156 255.769L120.313 255.734L120.348 245.361H130.156C134.154 245.361 137.406 242.079 137.406 238.046L137.441 228.115L147.723 228.15V238.045C147.723 242.079 150.976 245.36 154.973 245.36H164.782Z" fill="white"/>
</g>
<defs>
<filter id="filter0_ddi" x="0.291718" y="-7.70828" width="480.417" height="483.417" filterUnits="userSpaceOnUse" color-interpolation-filters="sRGB">
<feFlood flood-opacity="0" result="BackgroundImageFix"/>
<feColorMatrix in="SourceAlpha" type="matrix" values="0 0 0 0 0 0 0 0 0 0 0 0 0 0 0 0 0 0 127 0"/>
<feOffset/>
<feGaussianBlur stdDeviation="35.8541"/>
<feColorMatrix type="matrix" values="0 0 0 0 0.00392157 0 0 0 0 0.866667 0 0 0 0 0.45098 0 0 0 0.5 0"/>
<feBlend mode="normal" in2="BackgroundImageFix" result="effect1_dropShadow"/>
<feColorMatrix in="SourceAlpha" type="matrix" values="0 0 0 0 0 0 0 0 0 0 0 0 0 0 0 0 0 0 127 0"/>
<feOffset/>
<feGaussianBlur stdDeviation="9.26148"/>
<feColorMatrix type="matrix" values="0 0 0 0 0.00361109 0 0 0 0 0.866667 0 0 0 0 0.4524 0 0 0 0.7 0"/>
<feBlend mode="normal" in2="effect1_dropShadow" result="effect2_dropShadow"/>
<feBlend mode="normal" in="SourceGraphic" in2="effect2_dropShadow" result="shape"/>
<feColorMatrix in="SourceAlpha" type="matrix" values="0 0 0 0 0 0 0 0 0 0 0 0 0 0 0 0 0 0 127 0" result="hardAlpha"/>
<feOffset/>
<feGaussianBlur stdDeviation="3.58541"/>
<feComposite in2="hardAlpha" operator="arithmetic" k2="-1" k3="1"/>
<feColorMatrix type="matrix" values="0 0 0 0 0.00392157 0 0 0 0 0.866667 0 0 0 0 0.45098 0 0 0 0.5 0"/>
<feBlend mode="normal" in2="shape" result="effect3_innerShadow"/>
</filter>
<clipPath id="clip0">
<rect width="337" height="340" fill="white" transform="translate(72 64)"/>
</clipPath>
</defs>
</svg>
