<svg width="197" height="202" viewBox="0 0 197 202" fill="none" xmlns="http://www.w3.org/2000/svg">
<g filter="url(#filter0_ddif)">
<path fill-rule="evenodd" clip-rule="evenodd" d="M86.6075 110.967V52.8305L74.2651 45.8327V107.097L67.9356 110.689V42.244L56.4118 35.7103C47.7455 30.7967 37 37.0568 37 47.0191V116.778C37 123.96 42.5836 129.217 48.9471 129.753V54.8242C48.9471 51.1537 51.9226 48.1782 55.5931 48.1782V128.516C55.8678 128.384 56.1408 128.241 56.4118 128.087L86.6075 110.967ZM92.937 107.378L117.931 93.2075C126.715 88.2271 126.715 75.5704 117.931 70.59L111.609 67.0058V86.0016L105.28 89.5907V63.4172L92.937 56.4192V107.378Z" fill="white"/>
</g>
<defs>
<filter id="filter0_ddif" x="-34.7083" y="-37.7083" width="230.935" height="239.169" filterUnits="userSpaceOnUse" color-interpolation-filters="sRGB">
<feFlood flood-opacity="0" result="BackgroundImageFix"/>
<feColorMatrix in="SourceAlpha" type="matrix" values="0 0 0 0 0 0 0 0 0 0 0 0 0 0 0 0 0 0 127 0"/>
<feOffset/>
<feGaussianBlur stdDeviation="35.8541"/>
<feColorMatrix type="matrix" values="0 0 0 0 0.00392157 0 0 0 0 0.866667 0 0 0 0 0.45098 0 0 0 0.5 0"/>
<feBlend mode="normal" in2="BackgroundImageFix" result="effect1_dropShadow"/>
<feColorMatrix in="SourceAlpha" type="matrix" values="0 0 0 0 0 0 0 0 0 0 0 0 0 0 0 0 0 0 127 0"/>
<feOffset/>
<feGaussianBlur stdDeviation="9.26148"/>
<feColorMatrix type="matrix" values="0 0 0 0 0.00361109 0 0 0 0 0.866667 0 0 0 0 0.4524 0 0 0 0.7 0"/>
<feBlend mode="normal" in2="effect1_dropShadow" result="effect2_dropShadow"/>
<feBlend mode="normal" in="SourceGraphic" in2="effect2_dropShadow" result="shape"/>
<feColorMatrix in="SourceAlpha" type="matrix" values="0 0 0 0 0 0 0 0 0 0 0 0 0 0 0 0 0 0 127 0" result="hardAlpha"/>
<feOffset/>
<feGaussianBlur stdDeviation="3.58541"/>
<feComposite in2="hardAlpha" operator="arithmetic" k2="-1" k3="1"/>
<feColorMatrix type="matrix" values="0 0 0 0 0.00392157 0 0 0 0 0.866667 0 0 0 0 0.45098 0 0 0 0.5 0"/>
<feBlend mode="normal" in2="shape" result="effect3_innerShadow"/>
<feGaussianBlur stdDeviation="0.661534" result="effect4_foregroundBlur"/>
</filter>
</defs>
</svg>
